<?xml version="1.0" standalone="no"?>
<!DOCTYPE svg PUBLIC "-//W3C//DTD SVG 20010904//EN"
 "http://www.w3.org/TR/2001/REC-SVG-20010904/DTD/svg10.dtd">
<svg version="1.0" xmlns="http://www.w3.org/2000/svg"
 width="225.000000pt" height="225.000000pt" viewBox="0 0 225.000000 225.000000"
 preserveAspectRatio="xMidYMid meet">
<metadata>
Created by potrace 1.10, written by Peter Selinger 2001-2011
</metadata>
<g transform="translate(0.000000,225.000000) scale(0.050000,-0.050000)"
fill="#000000" stroke="none">
<path d="M0 2250 l0 -2250 1095 3 c666 1 1032 9 935 18 -1435 140 -2367 1610
-1887 2975 279 792 1016 1386 1838 1482 100 11 -204 18 -916 19 l-1065 3 0
-2250z"/>
<path d="M2430 4480 c1005 -59 1884 -860 2039 -1859 25 -155 27 -76 29 854 l2
1025 -1155 -3 c-695 -2 -1059 -9 -915 -17z"/>
<path d="M1910 4110 c-920 -174 -1648 -1110 -1539 -1980 l14 -112 112 16 c62
9 221 14 353 10 l240 -5 0 195 c0 204 49 356 169 525 38 53 39 63 11 193 -49
231 -27 447 49 487 77 42 318 -45 471 -169 l81 -65 149 39 c177 46 544 40 708
-11 l98 -31 83 69 c173 141 423 217 490 150 68 -68 75 -268 18 -525 -18 -84
-16 -101 22 -154 115 -162 151 -281 151 -502 l0 -210 275 0 275 0 0 220 c-2
1179 -1079 2077 -2230 1860z"/>
<path d="M4480 1989 c0 -208 -134 -608 -297 -884 -355 -604 -998 -1016 -1693
-1084 -98 -9 264 -17 925 -18 l1085 -3 0 1030 c0 567 -4 1030 -10 1030 -5 0
-10 -32 -10 -71z"/>
<path d="M480 1984 c-57 -12 -71 -24 -76 -69 -8 -67 9 -68 161 -15 89 31 165
40 349 40 180 0 229 5 210 24 -26 26 -529 42 -644 20z"/>
<path d="M3630 1981 c-40 -9 17 -18 170 -26 127 -6 250 -18 275 -26 33 -10 45
-6 45 16 0 49 -330 74 -490 36z"/>
<path d="M587 1859 c-176 -56 -180 -65 -106 -252 209 -530 589 -919 1096
-1122 159 -64 165 -56 158 185 l-5 180 -210 10 c-115 6 -223 18 -240 28 -69
42 -128 110 -200 232 -42 72 -118 170 -168 219 -107 104 -112 121 -36 121 88
0 193 -65 308 -190 203 -222 495 -238 698 -38 122 120 124 112 -38 154 -284
73 -511 216 -627 395 -34 52 -81 101 -104 107 -98 26 -405 9 -526 -29z"/>
<path d="M3480 1800 c-130 -203 -349 -344 -643 -415 l-134 -32 68 -83 c124
-151 175 -295 184 -520 10 -269 5 -261 130 -198 488 245 935 797 1007 1244 15
96 -9 104 -332 104 l-216 0 -64 -100z"/>
<path d="M2284 816 c-16 -16 -24 -99 -24 -241 l0 -217 85 6 85 6 -1 216 c-1
167 -8 221 -30 235 -40 25 -87 23 -115 -5z"/>
<path d="M1944 716 c-15 -15 -24 -85 -24 -180 l0 -156 80 0 80 0 0 141 c0 194
-56 275 -136 195z"/>
<path d="M2631 696 c-20 -29 -31 -89 -31 -170 0 -136 1 -137 118 -113 l62 12
0 137 c0 172 -75 239 -149 134z"/>
</g>
</svg>
