 <svg  version="1.0" xmlns="http://www.w3.org/2000/svg"  width="300.000000pt" height="300.000000pt" viewBox="0 0 300.000000 300.000000"  preserveAspectRatio="xMidYMid meet">  <g transform="translate(0.000000,300.000000) scale(0.050000,-0.050000)" fill="#007ebb" stroke="none"> <path d="M515 5978 c-193 -46 -364 -188 -452 -375 l-53 -113 0 -2490 0 -2490 53 -113 c67 -144 190 -267 334 -334 l113 -53 2490 0 2490 0 113 53 c144 67 267 190 334 334 l53 113 0 2490 0 2490 -53 113 c-67 144 -190 267 -334 334 l-113 53 -2450 3 c-1389 2 -2483 -4 -2525 -15z m1080 -861 c266 -127 374 -462 237 -733 -195 -385 -755 -379 -945 10 -225 459 249 943 708 723z m2773 -1327 c402 -85 653 -331 767 -750 31 -116 35 -238 35 -1170 l0 -1040 -450 0 -450 0 -10 900 -10 900 -57 116 c-174 354 -718 320 -887 -56 -32 -72 -37 -169 -46 -970 l-10 -890 -435 -5 -435 -6 0 1451 0 1450 440 0 440 0 0 -166 0 -166 135 131 c265 257 600 350 973 271z m-2548 -1520 l0 -1450 -450 0 -450 0 0 1450 0 1450 450 0 450 0 0 -1450z"/> </g> </svg> 